<?xml version="1.0" encoding="utf-8"?>
<!-- Generator: Adobe Illustrator 16.0.0, SVG Export Plug-In . SVG Version: 6.00 Build 0)  -->
<!DOCTYPE svg PUBLIC "-//W3C//DTD SVG 1.1//EN" "http://www.w3.org/Graphics/SVG/1.1/DTD/svg11.dtd">
<svg version="1.1" id="Layer_1" xmlns="http://www.w3.org/2000/svg" xmlns:xlink="http://www.w3.org/1999/xlink" x="0px" y="0px"
	 width="213.61px" height="28px" viewBox="0 0 213.61 28" enable-background="new 0 0 213.61 28" xml:space="preserve">
<g>
	<defs>
		<polygon id="SVGID_1_" points="43.49,5.61 56.189,5.61 56.189,9.138 47.891,9.138 47.891,12.918 55.561,12.918 55.561,16.446 
			47.891,16.446 47.891,22.62 43.49,22.62 		"/>
	</defs>
	<clipPath id="SVGID_2_">
		<use xlink:href="#SVGID_1_"  overflow="visible"/>
	</clipPath>
	<g clip-path="url(#SVGID_2_)">
		<defs>
			<rect id="SVGID_3_" x="-26.013" y="-31.75" width="1366" height="3100"/>
		</defs>
		<clipPath id="SVGID_4_">
			<use xlink:href="#SVGID_3_"  overflow="visible"/>
		</clipPath>
		<rect x="38.49" y="0.61" clip-path="url(#SVGID_4_)" fill="#FFFFFF" width="22.699" height="27.01"/>
	</g>
</g>
<g>
	<defs>
		<path id="SVGID_5_" d="M62.602,14.43h3.269c0.88,0,1.635-0.252,2.138-0.63c0.503-0.504,0.754-1.134,0.754-2.016
			s-0.251-1.512-0.754-1.891c-0.503-0.504-1.132-0.63-2.138-0.63h-3.269V14.43z M68.385,22.62l-2.515-4.662h-0.125h-3.144v4.662
			h-4.401V5.61h7.67c2.263,0,4.023,0.504,5.281,1.512s1.886,2.52,1.886,4.41c0,1.26-0.251,2.394-0.754,3.276
			s-1.257,1.638-2.263,2.142l3.521,5.544h-5.155V22.62z"/>
	</defs>
	<clipPath id="SVGID_6_">
		<use xlink:href="#SVGID_5_"  overflow="visible"/>
	</clipPath>
	<g clip-path="url(#SVGID_6_)">
		<defs>
			<rect id="SVGID_7_" x="-26.013" y="-31.75" width="1366" height="3100"/>
		</defs>
		<clipPath id="SVGID_8_">
			<use xlink:href="#SVGID_7_"  overflow="visible"/>
		</clipPath>
		<rect x="53.201" y="0.61" clip-path="url(#SVGID_8_)" fill="#FFFFFF" width="25.34" height="27.01"/>
	</g>
</g>
<g>
	<defs>
		<polygon id="SVGID_9_" points="75.175,5.61 88.629,5.61 88.629,9.138 79.702,9.138 79.702,12.288 87.749,12.288 87.749,15.816 
			79.702,15.816 79.702,18.966 88.88,18.966 88.88,22.494 75.175,22.494 		"/>
	</defs>
	<clipPath id="SVGID_10_">
		<use xlink:href="#SVGID_9_"  overflow="visible"/>
	</clipPath>
	<g clip-path="url(#SVGID_10_)">
		<defs>
			<rect id="SVGID_11_" x="-26.013" y="-31.75" width="1366" height="3100"/>
		</defs>
		<clipPath id="SVGID_12_">
			<use xlink:href="#SVGID_11_"  overflow="visible"/>
		</clipPath>
		<rect x="70.175" y="0.61" clip-path="url(#SVGID_12_)" fill="#FFFFFF" width="23.705" height="26.884"/>
	</g>
</g>
<g>
	<defs>
		<rect id="SVGID_13_" x="91.521" y="5.61" width="4.401" height="17.01"/>
	</defs>
	<clipPath id="SVGID_14_">
		<use xlink:href="#SVGID_13_"  overflow="visible"/>
	</clipPath>
	<g clip-path="url(#SVGID_14_)">
		<defs>
			<rect id="SVGID_15_" x="-26.013" y="-31.75" width="1366" height="3100"/>
		</defs>
		<clipPath id="SVGID_16_">
			<use xlink:href="#SVGID_15_"  overflow="visible"/>
		</clipPath>
		<rect x="86.521" y="0.61" clip-path="url(#SVGID_16_)" fill="#FFFFFF" width="14.401" height="27.01"/>
	</g>
</g>
<g>
	<defs>
		<path id="SVGID_17_" d="M110.507,13.926h3.772v6.804c-0.88,0.63-2.012,1.26-3.269,1.638s-2.515,0.63-3.772,0.63
			c-1.76,0-3.269-0.378-4.652-1.134c-1.383-0.756-2.515-1.764-3.269-3.15c-0.754-1.386-1.132-2.897-1.132-4.536
			c0-1.638,0.377-3.149,1.257-4.536c0.754-1.386,1.886-2.394,3.395-3.15c1.383-0.756,3.018-1.134,4.778-1.134
			c1.257,0,2.515,0.252,3.772,0.63c1.257,0.504,2.263,1.134,3.144,1.89l-2.515,3.15c-0.629-0.63-1.383-1.008-2.138-1.386
			c-0.754-0.378-1.634-0.504-2.389-0.504c-0.88,0-1.76,0.252-2.389,0.63c-0.754,0.377-1.257,1.008-1.76,1.764
			c-0.377,0.756-0.629,1.638-0.629,2.52c0,1.008,0.251,1.765,0.629,2.646c0.377,0.756,1.006,1.386,1.76,1.764s1.509,0.63,2.515,0.63
			c0.88,0,1.886-0.252,2.892-0.882V13.926z"/>
	</defs>
	<clipPath id="SVGID_18_">
		<use xlink:href="#SVGID_17_"  overflow="visible"/>
	</clipPath>
	<g clip-path="url(#SVGID_18_)">
		<defs>
			<rect id="SVGID_19_" x="-26.013" y="-31.75" width="1366" height="3100"/>
		</defs>
		<clipPath id="SVGID_20_">
			<use xlink:href="#SVGID_19_"  overflow="visible"/>
		</clipPath>
		<rect x="93.185" y="0.358" clip-path="url(#SVGID_20_)" fill="#FFFFFF" width="26.346" height="27.64"/>
	</g>
</g>
<g>
	<defs>
		<polygon id="SVGID_21_" points="117.17,5.61 121.571,5.61 121.571,12.54 128.487,12.54 128.487,5.61 132.888,5.61 132.888,22.62 
			128.487,22.62 128.487,16.068 121.571,16.068 121.571,22.62 117.17,22.62 		"/>
	</defs>
	<clipPath id="SVGID_22_">
		<use xlink:href="#SVGID_21_"  overflow="visible"/>
	</clipPath>
	<g clip-path="url(#SVGID_22_)">
		<defs>
			<rect id="SVGID_23_" x="-26.013" y="-31.75" width="1366" height="3100"/>
		</defs>
		<clipPath id="SVGID_24_">
			<use xlink:href="#SVGID_23_"  overflow="visible"/>
		</clipPath>
		<rect x="112.17" y="0.61" clip-path="url(#SVGID_24_)" fill="#FFFFFF" width="25.717" height="27.01"/>
	</g>
</g>
<g>
	<defs>
		<polygon id="SVGID_25_" points="134.773,5.61 149.359,5.61 149.359,9.264 144.33,9.264 144.33,22.62 139.803,22.62 139.803,9.264 
			134.773,9.264 		"/>
	</defs>
	<clipPath id="SVGID_26_">
		<use xlink:href="#SVGID_25_"  overflow="visible"/>
	</clipPath>
	<g clip-path="url(#SVGID_26_)">
		<defs>
			<rect id="SVGID_27_" x="-26.013" y="-31.75" width="1366" height="3100"/>
		</defs>
		<clipPath id="SVGID_28_">
			<use xlink:href="#SVGID_27_"  overflow="visible"/>
		</clipPath>
		<rect x="129.773" y="0.61" clip-path="url(#SVGID_28_)" fill="#FFFFFF" width="24.585" height="27.01"/>
	</g>
</g>
<g>
	<defs>
		<polygon id="SVGID_29_" points="152.125,5.61 154.263,5.61 160.926,18.336 167.465,5.61 169.602,5.61 169.602,22.62 
			168.093,22.62 168.093,8.004 161.429,20.856 160.549,20.856 153.885,8.004 153.885,22.62 152.251,22.62 152.251,5.61 		"/>
	</defs>
	<clipPath id="SVGID_30_">
		<use xlink:href="#SVGID_29_"  overflow="visible"/>
	</clipPath>
	<g clip-path="url(#SVGID_30_)">
		<defs>
			<rect id="SVGID_31_" x="-26.013" y="-31.75" width="1366" height="3100"/>
		</defs>
		<clipPath id="SVGID_32_">
			<use xlink:href="#SVGID_31_"  overflow="visible"/>
		</clipPath>
		<rect x="147.125" y="0.61" clip-path="url(#SVGID_32_)" fill="#FFFFFF" width="27.477" height="27.01"/>
	</g>
</g>
<g>
	<defs>
		<path id="SVGID_33_" d="M176.141,16.572h8.047l-4.023-9.198L176.141,16.572z M186.828,22.62l-2.012-4.536h-9.43l-2.012,4.536
			h-1.761l7.67-17.01h1.761l7.669,17.01H186.828z"/>
	</defs>
	<clipPath id="SVGID_34_">
		<use xlink:href="#SVGID_33_"  overflow="visible"/>
	</clipPath>
	<g clip-path="url(#SVGID_34_)">
		<defs>
			<rect id="SVGID_35_" x="-26.013" y="-31.75" width="1366" height="3100"/>
		</defs>
		<clipPath id="SVGID_36_">
			<use xlink:href="#SVGID_35_"  overflow="visible"/>
		</clipPath>
		<rect x="166.614" y="0.61" clip-path="url(#SVGID_36_)" fill="#FFFFFF" width="27.1" height="27.01"/>
	</g>
</g>
<g>
	<defs>
		<polygon id="SVGID_37_" points="187.457,5.61 200.282,5.61 200.282,7.122 194.624,7.122 194.624,22.62 192.989,22.62 
			192.989,7.122 187.331,7.122 187.331,5.61 		"/>
	</defs>
	<clipPath id="SVGID_38_">
		<use xlink:href="#SVGID_37_"  overflow="visible"/>
	</clipPath>
	<g clip-path="url(#SVGID_38_)">
		<defs>
			<rect id="SVGID_39_" x="-26.013" y="-31.75" width="1366" height="3100"/>
		</defs>
		<clipPath id="SVGID_40_">
			<use xlink:href="#SVGID_39_"  overflow="visible"/>
		</clipPath>
		<rect x="182.331" y="0.61" clip-path="url(#SVGID_40_)" fill="#FFFFFF" width="22.951" height="27.01"/>
	</g>
</g>
<g>
	<defs>
		<polygon id="SVGID_41_" points="202.042,5.61 213.358,5.61 213.358,7.122 203.676,7.122 203.676,13.17 212.352,13.17 
			212.352,14.682 203.676,14.682 203.676,21.108 213.61,21.108 213.61,22.62 201.916,22.62 201.916,5.61 		"/>
	</defs>
	<clipPath id="SVGID_42_">
		<use xlink:href="#SVGID_41_"  overflow="visible"/>
	</clipPath>
	<g clip-path="url(#SVGID_42_)">
		<defs>
			<rect id="SVGID_43_" x="-26.013" y="-31.75" width="1366" height="3100"/>
		</defs>
		<clipPath id="SVGID_44_">
			<use xlink:href="#SVGID_43_"  overflow="visible"/>
		</clipPath>
		<rect x="196.916" y="0.61" clip-path="url(#SVGID_44_)" fill="#FFFFFF" width="21.693" height="27.01"/>
	</g>
</g>
<linearGradient id="SVGID_45_" gradientUnits="userSpaceOnUse" x1="18.334" y1="0.1821" x2="18.5193" y2="12.7491">
	<stop  offset="0" style="stop-color:#6DBE45"/>
	<stop  offset="1" style="stop-color:#10847D"/>
</linearGradient>
<polygon fill="url(#SVGID_45_)" points="32.554,0 18.367,8.125 4.18,0 0,2.375 4.18,4.875 18.367,12.875 32.554,4.875 36.733,2.375 
	"/>
<linearGradient id="SVGID_46_" gradientUnits="userSpaceOnUse" x1="9.2637" y1="27.8232" x2="8.8531" y2="2.6138">
	<stop  offset="0" style="stop-color:#138B72"/>
	<stop  offset="1" style="stop-color:#8EC640"/>
</linearGradient>
<polygon fill="url(#SVGID_46_)" points="18.367,20.231 4.18,12.231 4.18,4.856 0,2.356 0,25.606 4.18,27.981 4.18,17.106 
	18.367,25.106 "/>
<linearGradient id="SVGID_47_" gradientUnits="userSpaceOnUse" x1="34.5781" y1="27.7437" x2="34.7106" y2="2.6995">
	<stop  offset="0" style="stop-color:#138B72"/>
	<stop  offset="1" style="stop-color:#8EC640"/>
</linearGradient>
<polygon fill="url(#SVGID_47_)" points="32.554,4.856 32.554,27.981 36.733,25.606 36.733,2.356 "/>
</svg>
